<svg xmlns="http://www.w3.org/2000/svg" xmlns:xlink="http://www.w3.org/1999/xlink" width="68" height="138" viewBox="0 0 68 138">
  <defs>
    <filter id="BG" x="0" y="0" width="68" height="138" filterUnits="userSpaceOnUse">
      <feOffset dy="3" input="SourceAlpha"/>
      <feGaussianBlur stdDeviation="3" result="blur"/>
      <feFlood flood-opacity="0.161"/>
      <feComposite operator="in" in2="blur"/>
      <feComposite in="SourceGraphic"/>
    </filter>
  </defs>
  <g id="btn_lighten" transform="translate(-1220 -321)">
    <g transform="matrix(1, 0, 0, 1, 1220, 321)" filter="url(#BG)">
      <rect id="BG-2" data-name="BG" width="50" height="120" rx="25" transform="translate(9 6)" fill="#fff"/>
    </g>
    <g id="toggle" transform="translate(1245.13 362.378)">
      <rect id="bar" width="18" height="50" rx="8.87"/>
    </g>
    <g id="sun" transform="translate(1242.481 333.01)">
      <circle id="타원_1" data-name="타원 1" cx="7" cy="7" r="7" transform="translate(5 5)"/>
      <line id="선_1" data-name="선 1" y2="3" transform="translate(12)" fill="none" stroke="#000" stroke-linecap="round" stroke-miterlimit="10" stroke-width="2"/>
      <line id="선_2" data-name="선 2" y2="3" transform="translate(12 21)" fill="none" stroke="#000" stroke-linecap="round" stroke-miterlimit="10" stroke-width="2"/>
      <line id="선_3" data-name="선 3" x1="3" transform="translate(21 12)" fill="none" stroke="#000" stroke-linecap="round" stroke-miterlimit="10" stroke-width="2"/>
      <line id="선_4" data-name="선 4" x1="3" transform="translate(0 12)" fill="none" stroke="#000" stroke-linecap="round" stroke-miterlimit="10" stroke-width="2"/>
      <line id="선_5" data-name="선 5" x1="1.871" y2="1.871" transform="translate(18.463 3.49)" fill="none" stroke="#000" stroke-linecap="round" stroke-miterlimit="10" stroke-width="2"/>
      <line id="선_6" data-name="선 6" x1="1.871" y2="1.871" transform="translate(3.49 18.463)" fill="none" stroke="#000" stroke-linecap="round" stroke-miterlimit="10" stroke-width="2"/>
      <line id="선_7" data-name="선 7" x1="1.871" y1="1.871" transform="translate(18.463 18.463)" fill="none" stroke="#000" stroke-linecap="round" stroke-miterlimit="10" stroke-width="2"/>
      <line id="선_8" data-name="선 8" x1="1.871" y1="1.871" transform="translate(3.49 3.49)" fill="none" stroke="#000" stroke-linecap="round" stroke-miterlimit="10" stroke-width="2"/>
    </g>
    <path id="moon" d="M38.462,37.077A12.872,12.872,0,0,1,39.385,32,12.558,12.558,0,1,0,56,48.615a12.877,12.877,0,0,1-5.077.923A12.461,12.461,0,0,1,38.462,37.077Z" transform="translate(1212.407 384.01)"/>
  </g>
</svg>
