<svg xmlns="http://www.w3.org/2000/svg" xmlns:xlink="http://www.w3.org/1999/xlink" width="53" height="133" viewBox="0 0 53 133">
  <defs>
    <filter id="BG" x="0" y="0" width="53" height="133" filterUnits="userSpaceOnUse">
      <feOffset dy="3" input="SourceAlpha"/>
      <feGaussianBlur stdDeviation="3" result="blur"/>
      <feFlood flood-opacity="0.161"/>
      <feComposite operator="in" in2="blur"/>
      <feComposite in="SourceGraphic"/>
    </filter>
  </defs>
  <g id="btn_darken_tablet" transform="translate(-1220.069 -323.878)">
    <g transform="matrix(1, 0, 0, 1, 1220.07, 323.88)" filter="url(#BG)">
      <rect id="BG-2" data-name="BG" width="35" height="115" rx="17.5" transform="translate(9 6)" fill="#3861f6"/>
    </g>
    <g id="toggle" transform="translate(1237.569 362.378)">
      <rect id="bar" width="18" height="50" rx="8.87" fill="#1233ba"/>
    </g>
    <g id="sun" transform="translate(1237.569 339.01)">
      <circle id="타원_1" data-name="타원 1" cx="4" cy="4" r="4" transform="translate(5 5)" fill="#fff"/>
      <line id="선_1" data-name="선 1" y2="2.608" transform="translate(9)" fill="none" stroke="#fff" stroke-linecap="round" stroke-miterlimit="10" stroke-width="2"/>
      <line id="선_2" data-name="선 2" y2="2.608" transform="translate(9 15.392)" fill="none" stroke="#fff" stroke-linecap="round" stroke-miterlimit="10" stroke-width="2"/>
      <line id="선_3" data-name="선 3" x1="2.608" transform="translate(15.392 9)" fill="none" stroke="#fff" stroke-linecap="round" stroke-miterlimit="10" stroke-width="2"/>
      <line id="선_4" data-name="선 4" x1="2.608" transform="translate(0 9)" fill="none" stroke="#fff" stroke-linecap="round" stroke-miterlimit="10" stroke-width="2"/>
      <line id="선_5" data-name="선 5" x1="1.626" y2="1.626" transform="translate(13.661 3.034)" fill="none" stroke="#fff" stroke-linecap="round" stroke-miterlimit="10" stroke-width="2"/>
      <line id="선_6" data-name="선 6" x1="1.626" y2="1.626" transform="translate(3.034 13.661)" fill="none" stroke="#fff" stroke-linecap="round" stroke-miterlimit="10" stroke-width="2"/>
      <line id="선_7" data-name="선 7" x1="1.626" y1="1.626" transform="translate(13.661 13.661)" fill="none" stroke="#fff" stroke-linecap="round" stroke-miterlimit="10" stroke-width="2"/>
      <line id="선_8" data-name="선 8" x1="1.626" y1="1.626" transform="translate(3.034 3.034)" fill="none" stroke="#fff" stroke-linecap="round" stroke-miterlimit="10" stroke-width="2"/>
    </g>
    <path id="moon" d="M36.846,35.808A9.654,9.654,0,0,1,37.539,32,9.418,9.418,0,1,0,50,44.461a9.658,9.658,0,0,1-3.808.692A9.346,9.346,0,0,1,36.846,35.808Z" transform="translate(1205.569 385.746)" fill="#fff"/>
  </g>
</svg>
