<svg xmlns="http://www.w3.org/2000/svg" width="16" height="21" viewBox="0 0 16 21">
  <g id="ico_lock" transform="translate(3485 1616)">
    <g id="_3669337_lock_open_ic_icon" data-name="3669337_lock_open_ic_icon" transform="translate(-3493 -1618)">
      <path id="패스_21" data-name="패스 21" d="M16,18a2,2,0,1,0-2-2A2,2,0,0,0,16,18Zm6-9H21V7A5,5,0,0,0,11,7h1.9a3.1,3.1,0,0,1,6.2,0V9H10a2,2,0,0,0-2,2V21a2,2,0,0,0,2,2H22a2,2,0,0,0,2-2V11A2,2,0,0,0,22,9Zm0,12H10V11H22Z" fill="#a5a6aa"/>
    </g>
  </g>
</svg>
