<svg xmlns="http://www.w3.org/2000/svg" width="10" height="10" viewBox="0 0 10 10">
  <path id="ico_update_white" d="M12.736,13.264,10.6,11.153V8.181h.833v2.625l1.9,1.861ZM11.042,16a4.887,4.887,0,0,1-1.958-.4,5.17,5.17,0,0,1-1.6-1.076,5.027,5.027,0,0,1-1.083-1.6A4.887,4.887,0,0,1,6,10.972a4.788,4.788,0,0,1,.4-1.944A4.988,4.988,0,0,1,7.479,7.451a5.132,5.132,0,0,1,1.6-1.063A4.962,4.962,0,0,1,11.042,6a4.724,4.724,0,0,1,2.1.486,5.285,5.285,0,0,1,1.715,1.333V6.347h.833V9.236h-2.9V8.4H14.25a4.83,4.83,0,0,0-1.438-1.139,3.777,3.777,0,0,0-1.771-.431A4.137,4.137,0,0,0,8.069,8.021a3.879,3.879,0,0,0-1.236,2.91,4.108,4.108,0,0,0,1.222,3,4.039,4.039,0,0,0,2.986,1.236,3.939,3.939,0,0,0,2.931-1.222,4.077,4.077,0,0,0,1.194-2.958H16a4.869,4.869,0,0,1-1.444,3.549A4.749,4.749,0,0,1,11.042,16Z" transform="translate(-6 -6)" fill="#fff" opacity="0.997"/>
</svg>
