<svg xmlns="http://www.w3.org/2000/svg" width="14.685" height="9" viewBox="0 0 14.685 9">
  <path id="ico_moreArrow_white" d="M17.012,21.445l4.086-3.9a.606.606,0,0,0,.145-.2.6.6,0,0,0,0-.438.606.606,0,0,0-.145-.2l-4.086-3.918a.639.639,0,0,0-.436-.169.6.6,0,0,0-.456.169.583.583,0,0,0,0,.855l3.008,2.884H7.222a.618.618,0,0,0-.446.169.607.607,0,0,0,0,.855.618.618,0,0,0,.446.169H19.128L16.12,20.609a.575.575,0,0,0-.176.408.539.539,0,0,0,.176.428.645.645,0,0,0,.892,0Z" transform="translate(-6.6 -12.624)" fill="#fff"/>
</svg>
