<svg xmlns="http://www.w3.org/2000/svg" width="20" height="16" viewBox="0 0 20 16">
  <g id="ico_pin" transform="translate(3429 1611)">
    <path id="pin_FILL1_wght400_GRAD0_opsz48" d="M5.5,24a1.439,1.439,0,0,1-1.05-.45A1.439,1.439,0,0,1,4,22.5V9.5a1.439,1.439,0,0,1,.45-1.05A1.439,1.439,0,0,1,5.5,8h17A1.538,1.538,0,0,1,24,9.5v13A1.538,1.538,0,0,1,22.5,24Zm2.675-4.85h1.05v-6.3h-.8L6.6,14.075l.525.825,1.05-.7Zm3.325,0h4.075V18.2H12.85v-.05q.35-.3.762-.663t.738-.687a5.48,5.48,0,0,0,.825-.962,2,2,0,0,0,.3-1.112,1.794,1.794,0,0,0-.55-1.338A1.953,1.953,0,0,0,13.5,12.85a2.186,2.186,0,0,0-1.262.35,2.122,2.122,0,0,0-.762.925l.95.45A1.23,1.23,0,0,1,13.5,13.9a.946.946,0,0,1,.7.25.818.818,0,0,1,.25.6,1.368,1.368,0,0,1-.25.837,4.743,4.743,0,0,1-.675.712l-1.012.925q-.438.4-1.012.95Zm7.85,0a2.423,2.423,0,0,0,1.487-.437,1.587,1.587,0,0,0,.587-1.362,1.573,1.573,0,0,0-.325-1.025,1.2,1.2,0,0,0-.85-.45V15.85a1.323,1.323,0,0,0,.712-.488,1.511,1.511,0,0,0,.238-.887,1.45,1.45,0,0,0-.538-1.187,2.05,2.05,0,0,0-1.337-.437,2.01,2.01,0,0,0-1.05.3,2.326,2.326,0,0,0-.825.875l.85.45a1.64,1.64,0,0,1,.463-.437,1.05,1.05,0,0,1,.563-.163.884.884,0,0,1,.612.212.748.748,0,0,1,.237.588.587.587,0,0,1-.287.575,1.654,1.654,0,0,1-.763.15h-.35v.975h.375a1.557,1.557,0,0,1,.863.25.81.81,0,0,1,.387.725.841.841,0,0,1-.288.688,1.159,1.159,0,0,1-.762.237,1.232,1.232,0,0,1-.725-.25,1.365,1.365,0,0,1-.5-.675l-.875.325a2.067,2.067,0,0,0,.712,1.075A2.2,2.2,0,0,0,19.35,19.15ZM5.5,22.5h17V9.5H5.5v13Zm0,0h0V9.5h17v13H5.5Z" transform="translate(-3433 -1619)" fill="#a5a6aa"/>
  </g>
</svg>
